<?xml version="1.0" encoding="UTF-8" standalone="no"?>
<svg width="166px" height="176px" viewBox="0 0 166 176" version="1.1" xmlns="http://www.w3.org/2000/svg" xmlns:xlink="http://www.w3.org/1999/xlink">
    <!-- Generator: Sketch 39.1 (31720) - http://www.bohemiancoding.com/sketch -->
    <title>carriage</title>
    <desc>Created with Sketch.</desc>
    <defs></defs>
    <g id="Page-1" stroke="none" stroke-width="1" fill="none" fill-rule="evenodd">
        <path d="M75.5,5.5 L84.5,20.5" id="Line" stroke="#7ED321" stroke-width="7" stroke-linecap="square"></path>
        <circle id="Oval" fill="#F6A623" cx="85" cy="80" r="67"></circle>
        <g id="Group-2" transform="translate(3.000000, 113.000000)">
            <g id="Group" transform="translate(1.000000, 0.000000)" stroke="#979797" stroke-width="3" stroke-linecap="square">
                <path d="M0.5,30.5 L58.5,30.5" id="Line"></path>
                <path d="M29.5,0.5 L29.5,59.5" id="Line"></path>
                <path d="M9.5,9.5 L48.5,50.5" id="Line"></path>
                <path d="M11.5,51.5 L48.5,9.5" id="Line"></path>
            </g>
            <circle id="Oval-2" stroke="#4A4A4A" stroke-width="5" cx="30" cy="30" r="30"></circle>
        </g>
        <g id="Group-2" transform="translate(103.000000, 113.000000)">
            <g id="Group" transform="translate(1.000000, 0.000000)" stroke="#979797" stroke-width="3" stroke-linecap="square">
                <path d="M0.5,30.5 L58.5,30.5" id="Line"></path>
                <path d="M29.5,0.5 L29.5,59.5" id="Line"></path>
                <path d="M9.5,9.5 L48.5,50.5" id="Line"></path>
                <path d="M11.5,51.5 L48.5,9.5" id="Line"></path>
            </g>
            <circle id="Oval-2" stroke="#4A4A4A" stroke-width="5" cx="30" cy="30" r="30"></circle>
        </g>
        <rect id="Rectangle" fill="#FFFFFF" x="45" y="60" width="35" height="30" rx="4"></rect>
    </g>
</svg>