<?xml version="1.0" encoding="UTF-8" standalone="no"?>
<svg width="476px" height="349px" viewBox="0 0 476 349" version="1.1" xmlns="http://www.w3.org/2000/svg" xmlns:xlink="http://www.w3.org/1999/xlink">
    <!-- Generator: Sketch 39.1 (31720) - http://www.bohemiancoding.com/sketch -->
    <title>house</title>
    <desc>Created with Sketch.</desc>
    <defs>
        <rect id="path-1" x="53" y="5" width="69" height="28" rx="4"></rect>
        <mask id="mask-2" maskContentUnits="userSpaceOnUse" maskUnits="objectBoundingBox" x="0" y="0" width="69" height="28" fill="white">
            <use xlink:href="#path-1"></use>
        </mask>
    </defs>
    <g id="Page-1" stroke="none" stroke-width="1" fill="none" fill-rule="evenodd">
        <g id="House">
            <rect id="Rectangle" fill="#7ED321" x="0" y="273" width="476" height="76"></rect>
            <rect id="Rectangle-2" fill="#4990E2" x="0" y="0" width="476" height="273"></rect>
            <rect id="Rectangle-3" fill="#F8E81C" x="111" y="137" width="254" height="136"></rect>
            <rect id="Rectangle-5" fill="#D0011B" x="127" y="152" width="51" height="42"></rect>
            <circle id="Oval-2" fill="#F8E81C" cx="124" cy="63" r="28"></circle>
            <rect id="Rectangle-5" fill="#4990E2" x="131" y="155" width="44" height="35.8518519"></rect>
            <rect id="Rectangle-5" fill="#D0011B" x="292" y="149" width="51" height="42"></rect>
            <rect id="Rectangle-5" fill="#4990E2" x="296" y="152" width="44" height="35.8518519"></rect>
            <polygon id="Triangle" fill="#8B572A" points="238 44 378 137 98 137"></polygon>
            <rect id="Rectangle-4" fill="#D0011B" x="211" y="207" width="54" height="66"></rect>
            <rect id="Rectangle-4" fill="#FFFFFF" x="216" y="212" width="44" height="61"></rect>
            <circle id="Oval" stroke="#979797" fill="#D8D8D8" cx="251.5" cy="246.5" r="3.5"></circle>
            <path d="M153,154 L153,192.5" id="Line" stroke="#D0011B" stroke-width="2" stroke-linecap="square"></path>
            <path d="M129.5,173 L176.5,173" id="Line" stroke="#D0011B" stroke-width="2" stroke-linecap="square"></path>
            <path d="M294.5,170 L341.5,170" id="Line" stroke="#D0011B" stroke-width="2" stroke-linecap="square"></path>
            <path d="M317,150.5 L317,189.5" id="Line" stroke="#D0011B" stroke-width="2" stroke-linecap="square"></path>
            <path d="M410.5,226.5 L410.5,268.5" id="Line" stroke="#8B572A" stroke-width="9" stroke-linecap="square"></path>
            <polygon id="Polygon" fill="#417505" points="410.5 150 449 179.029417 434.294309 226 386.705691 226 372 179.029417"></polygon>
        </g>
        <g id="Car" transform="translate(18.000000, 232.000000)">
            <rect id="Rectangle-6" fill="#F6A623" x="0" y="26" width="175" height="42"></rect>
            <circle id="Oval-3" stroke="#000000" stroke-width="5" fill="#D8D8D8" cx="39" cy="68" r="14"></circle>
            <circle id="Oval-3" stroke="#000000" stroke-width="5" fill="#D8D8D8" cx="136" cy="68" r="14"></circle>
            <rect id="Rectangle-7" fill="#F6A623" x="46" y="0" width="83" height="45" rx="8"></rect>
            <use id="Rectangle-8" stroke="#979797" mask="url(#mask-2)" stroke-width="2" fill="#D8D8D8" xlink:href="#path-1"></use>
        </g>
    </g>
</svg>